PathFileType	4	(X/Y/Z)	C:\Users\dbl\Desktop\LZH\BX\Trimmed_bx_y_5_1801.trc
DataRate	CameraRate	NumFrames	NumMarkers	Units	OrigDataRate	OrigDataStartFrame	OrigNumFrames
50.00	50.00	       5	43	mm	50.00	248	       330
Frame#	Time	Top.Head			R.Acromium			L.Acromium			Sternum			R.ASIS			L.ASIS			V.Sacral			R.Thigh.Upper			R.Thigh.Front			R.Thigh.Rear			R.Knee.Lat			R.Knee.Med			R.Shank.Upper			R.Shank.Front			R.Shank.Rear			R.Ankle.Lat			R.Midfoot.Lat			R.Toe.Lat			R.Toe.Tip			R.Toe.Med			R.Ankle.Med			R.Midfoot.Sup			R.Heel			L.Thigh.Upper			L.Thigh.Front			L.Thigh.Rear			L.Knee.Lat			L.Knee.Med			L.Shank.Upper			L.Shank.Front			L.Shank.Rear			L.Ankle.Lat			L.Midfoot.Lat			L.Toe.Lat			L.Toe.Tip			L.Toe.Med			L.Ankle.Med			L.Midfoot.Sup			L.Heel			origin1 front left			origin2 front right			origin 3 back right			origin 4 back leftt			
		X1	Y1	Z1	X2	Y2	Z2	X3	Y3	Z3	X4	Y4	Z4	X5	Y5	Z5	X6	Y6	Z6	X7	Y7	Z7	X8	Y8	Z8	X9	Y9	Z9	X10	Y10	Z10	X11	Y11	Z11	X12	Y12	Z12	X13	Y13	Z13	X14	Y14	Z14	X15	Y15	Z15	X16	Y16	Z16	X17	Y17	Z17	X18	Y18	Z18	X19	Y19	Z19	X20	Y20	Z20	X21	Y21	Z21	X22	Y22	Z22	X23	Y23	Z23	X24	Y24	Z24	X25	Y25	Z25	X26	Y26	Z26	X27	Y27	Z27	X28	Y28	Z28	X29	Y29	Z29	X30	Y30	Z30	X31	Y31	Z31	X32	Y32	Z32	X33	Y33	Z33	X34	Y34	Z34	X35	Y35	Z35	X36	Y36	Z36	X37	Y37	Z37	X38	Y38	Z38	X39	Y39	Z39	X40	Y40	Z40	X41	Y41	Z41	X42	Y42	Z42	X43	Y43	Z43	

248	4.940	-603.45410	217.17050	1784.16675	-562.55872	32.32513	1468.45972	-537.58374	420.74503	1480.93127	-524.07465	233.31595	1329.91565	-630.87933	132.42888	1054.90649	-617.05524	376.86267	1053.29871	-833.53088	251.19194	988.84924	-633.20160	70.74423	893.69232	-576.09918	126.28799	859.69501	-634.25647	63.86095	739.78259	-592.27148	88.50439	597.03766	-559.79645	196.14330	563.79688	-623.90558	94.47420	530.66174	-529.36017	133.70648	548.70178	-673.26196	106.89397	472.85342	-682.21008	147.33769	213.52324	-616.45923	79.72410	164.75278	-570.18024	55.01372	162.29614	-491.26208	95.00809	159.91190	-530.62231	146.75883	166.94272	-624.91553	216.37926	215.98798	-590.09857	189.77364	170.45328	-711.81805	218.76813	171.77223	-630.46979	431.41092	880.39771	-560.13745	359.06351	856.54193	-608.59033	437.67941	752.36835	-590.41370	415.29016	623.60492	-544.31653	315.26340	578.00549	-588.33197	412.88049	560.74829	-535.74738	371.63022	533.92859	-646.55054	415.54626	513.02252	-674.14490	414.27908	213.05322	-583.45117	469.52148	164.88371	-543.28418	477.47256	159.14212	-481.14047	430.42624	165.83836	-524.98047	389.25107	178.38120	-637.57074	326.21085	204.28401	-593.59705	349.06876	167.71751	-731.63019	343.79373	165.07481	-443.80804	449.02728	147.31187	-449.96320	76.22274	143.70221	-806.08795	82.58140	142.70486	-799.64935	457.62231	145.38414	
249	4.960	-609.97021	216.74382	1789.52747	-567.06165	31.61272	1473.85095	-541.96051	420.28876	1486.76111	-524.85211	232.77127	1335.09521	-628.34735	131.28423	1055.08264	-614.84625	377.22998	1056.07678	-829.87469	250.34442	991.29681	-630.95972	70.18374	894.95172	-574.13605	126.09911	860.71185	-634.38672	64.47507	741.24994	-594.80548	89.76154	598.04932	-562.71405	197.55229	564.49890	-626.58130	95.66491	531.39313	-532.27362	135.05295	549.59052	-675.53040	107.85552	473.13678	-682.30078	147.28749	213.47701	-616.57074	79.55593	164.59410	-570.15985	54.89282	162.28578	-491.27185	95.06821	159.95018	-530.66150	146.75856	166.95236	-625.22784	216.36281	216.05582	-590.08667	189.76202	170.47304	-711.90381	218.62535	171.63406	-628.63947	431.31183	881.34290	-558.68530	358.69629	857.30200	-609.64465	437.08160	753.99756	-594.02374	414.39368	624.69708	-548.44116	314.34601	578.90295	-592.15167	412.01227	561.65839	-539.60590	370.65848	535.01154	-649.98322	414.96582	513.56866	-674.41620	414.35989	213.18077	-583.47314	469.55301	164.88245	-543.40399	477.59421	159.15508	-481.12958	430.49173	165.97104	-525.07013	389.28619	178.36497	-637.86139	326.39948	204.59290	-593.65948	349.10666	167.95578	-731.67706	343.96042	165.03819	-443.82117	449.06686	147.34727	-449.96155	76.19454	143.68828	-806.11194	82.61487	142.66440	-799.64417	457.66122	145.34969	
250	4.980	-616.19342	216.32693	1794.53931	-571.62299	31.01760	1478.87170	-546.33862	419.92743	1492.17078	-525.50085	232.32846	1340.14832	-625.81573	130.10783	1055.18738	-612.64130	377.57193	1058.84290	-826.55518	249.76831	993.58850	-628.73621	69.70238	896.04523	-571.98724	125.99551	861.54962	-634.36981	65.14776	742.61932	-597.23547	91.08607	598.94806	-565.67743	199.04202	565.17310	-629.13330	96.93156	532.20172	-535.09564	136.53250	550.42291	-677.69562	108.88071	473.40698	-682.29761	147.28371	213.40536	-616.68115	79.44510	164.45215	-570.08655	54.81266	162.31367	-491.29254	95.15881	159.98251	-530.64850	146.77751	166.94302	-625.32434	216.49579	216.38545	-590.09113	189.75885	170.49609	-711.99292	218.55034	171.52248	-626.40552	431.34213	881.65436	-557.11511	358.25165	857.85785	-610.43811	436.51376	755.37244	-597.45728	413.41489	625.68066	-552.43823	313.32193	579.74207	-595.84778	411.06134	562.46442	-543.31757	369.57028	535.98395	-653.27289	414.37817	514.06641	-674.73083	414.45560	213.38618	-583.46094	469.52310	164.91554	-543.48431	477.66315	159.19894	-481.09570	430.49811	166.12187	-525.10156	389.26129	178.37903	-638.13031	326.37930	205.02544	-593.54016	349.07944	168.24034	-731.68622	344.08542	165.03293	-443.81683	449.09891	147.37682	-449.97241	76.17336	143.67894	-806.17389	82.64252	142.60315	-799.63049	457.72495	145.22089	
251	5.000	-622.14227	215.96669	1799.22937	-576.28571	30.62774	1483.49866	-550.78461	419.72333	1497.18591	-526.35461	232.04431	1345.12891	-623.28326	128.89964	1055.22583	-610.44122	377.88812	1061.59448	-823.53168	249.37009	995.71838	-626.58167	69.43007	896.94897	-569.71606	126.01202	862.21649	-634.21191	65.91461	743.87213	-599.58826	92.52171	599.73340	-568.63739	200.60269	565.85883	-631.59979	98.27818	533.03955	-537.85931	138.16626	551.16168	-679.74591	109.91734	473.69189	-682.30804	147.26849	213.34500	-616.73724	79.42516	164.37610	-570.01312	54.78638	162.33244	-491.31686	95.25929	160.02463	-530.59485	146.81015	166.92900	-625.25879	216.69498	216.83754	-590.12732	189.75246	170.52052	-712.11481	218.51225	171.43805	-624.11743	431.26514	881.64734	-555.51227	357.68741	858.24518	-610.83759	435.85544	756.35577	-600.73419	412.43143	626.63611	-556.34625	312.18808	580.49268	-599.46844	410.07300	563.19220	-546.94263	368.40558	536.86340	-656.46808	413.73590	514.50537	-675.05420	414.54279	213.58162	-583.39990	469.40866	164.98265	-543.51343	477.65973	159.24905	-481.07556	430.45724	166.26210	-525.08881	389.20651	178.41380	-638.36310	326.04340	205.68367	-593.30103	349.00885	168.52983	-731.67773	344.16333	165.03622	-443.80557	449.11264	147.37772	-449.99646	76.16728	143.67677	-806.23517	82.65575	142.55704	-799.59949	457.82611	145.01120	
252	5.020	-627.83337	215.70401	1803.60730	-580.99780	30.42587	1487.76782	-555.34070	419.67932	1501.84802	-527.56824	231.96045	1349.99243	-620.73535	127.67522	1055.28687	-608.24683	378.17801	1064.32910	-820.61780	248.99747	997.62946	-624.54474	69.45539	897.55243	-567.46924	126.11963	862.70746	-633.95447	66.86548	744.91400	-601.91174	94.04912	600.40900	-571.48010	202.17303	566.53253	-634.00867	99.67439	533.81519	-540.57959	139.87671	551.78247	-681.69354	110.92584	473.99234	-682.39343	147.18903	213.29305	-616.72217	79.47130	164.38362	-569.99609	54.81421	162.27544	-491.32895	95.34447	160.08119	-530.53040	146.84212	166.92297	-625.19489	216.81262	217.24619	-590.20306	189.73070	170.53076	-712.28442	218.45695	171.37247	-622.06244	430.90817	881.83368	-553.95905	357.05414	858.47955	-610.83057	434.99866	756.93793	-603.91156	411.50430	627.57434	-560.16150	310.98563	581.13788	-603.01129	409.09268	563.87128	-550.49371	367.24139	537.71222	-659.61169	413.01004	514.88940	-675.32953	414.59668	213.71350	-583.29376	469.21689	165.07616	-543.49561	477.60950	159.28911	-481.08917	430.41818	166.37047	-525.05798	389.15268	178.44948	-638.57220	325.54953	206.40633	-593.08191	348.93292	168.75388	-731.66901	344.21841	165.03070	-443.79828	449.10159	147.34933	-450.03281	76.17263	143.67595	-806.24762	82.64951	142.55429	-799.56097	457.92047	144.84343	
